<?xml version="1.0" encoding="UTF-8" standalone="no"?>
<!-- Created with Inkscape (http://www.inkscape.org/) -->

<svg
   width="251.13731mm"
   height="312.23367mm"
   viewBox="0 0 251.13731 312.23367"
   version="1.1"
   id="svg1"
   xml:space="preserve"
   inkscape:version="1.3.2 (091e20e, 2023-11-25, custom)"
   sodipodi:docname="logo.svg"
   xmlns:inkscape="http://www.inkscape.org/namespaces/inkscape"
   xmlns:sodipodi="http://sodipodi.sourceforge.net/DTD/sodipodi-0.dtd"
   xmlns="http://www.w3.org/2000/svg"
   xmlns:svg="http://www.w3.org/2000/svg"><sodipodi:namedview
     id="namedview1"
     pagecolor="#ffffff"
     bordercolor="#000000"
     borderopacity="0.25"
     inkscape:showpageshadow="2"
     inkscape:pageopacity="0.0"
     inkscape:pagecheckerboard="0"
     inkscape:deskcolor="#d1d1d1"
     inkscape:document-units="mm"
     inkscape:zoom="0.17304819"
     inkscape:cx="-2282.6012"
     inkscape:cy="-1066.177"
     inkscape:window-width="1920"
     inkscape:window-height="991"
     inkscape:window-x="-9"
     inkscape:window-y="-9"
     inkscape:window-maximized="1"
     inkscape:current-layer="layer1" /><defs
     id="defs1" /><g
     inkscape:label="Layer 1"
     inkscape:groupmode="layer"
     id="layer1"
     transform="translate(1054.4945,419.26387)"><path
       id="path2"
       style="fill:#000000"
       d="m -1054.4944,-419.26388 v 7.42642 l 13.8508,1.10277 c 2.7884,-1.52562 6.1892,-4.32323 8.5814,-7.21971 l 1.0816,-1.30948 z m 37.6411,0 c 1.8133,0.61747 3.6925,1.12051 5.656,1.41645 1.4527,0.21895 3.2961,0.40059 4.0964,0.40359 1.7707,0.007 2.5681,0.38058 3.3884,1.58905 0.8455,1.24544 0.6701,2.67564 -0.4666,3.80804 l -0.8217,0.81855 -3.1006,-0.0429 c -5.6631,-0.0785 -11.0909,-1.57641 -17.2558,-4.76095 -0.073,-0.0376 -0.668,0.6529 -1.3229,1.53427 -1.1012,1.48208 -2.6699,3.03804 -4.3491,4.52893 l 8.9116,0.70951 c 0.2171,7.63133 0.3654,15.46802 0.3654,23.75049 0,0.23205 0,0.4773 0.01,0.70952 3.1619,-0.002 4.135,-0.0924 6.5748,-0.72295 1.6008,-0.41369 3.0137,-0.85007 3.1398,-0.96997 0.2867,-0.27258 -2.4445,-3.02117 -4.148,-4.17442 -1.6896,-1.1439 -2.2536,-2.40059 -1.7369,-3.86902 0.486,-1.38136 1.5501,-2.14044 3.0004,-2.14044 0.9328,0 1.4897,0.237 3.0297,1.28933 3.6586,2.49976 6.22,6.05813 7.3469,10.11928 10e-4,-0.0789 5e-4,-0.1624 0,-0.24133 0.1585,-8.40277 0.3168,-16.04891 0.4754,-23.78149 l 32.26675,-2.54713 v -7.42642 z m 6.5913,39.12474 c -0.08,3.9e-4 -1.5754,0.37965 -3.3217,0.84284 -2.9717,0.78823 -3.4828,0.83522 -8.1019,0.84285 0.1451,9.46554 0.2713,18.96924 0.2713,28.72486 v 15.56235 c 0.3036,-1.44569 0.7565,-2.3176 1.8092,-2.75745 0.333,-0.13915 0.6556,-0.22608 0.9679,-0.25993 0.9369,-0.10155 1.7795,0.27042 2.5203,1.11414 0.7157,0.81512 0.8139,1.1191 0.8139,2.51664 0,3.64001 -1.3803,8.0356 -3.6241,11.89437 -0.7594,-0.80766 -1.5941,-1.53424 -2.4872,-2.1978 v 9.90792 16.20263 4.14652 c 3.7432,5.46661 9.6392,9.31128 16.5396,11.1218 v -15.26832 -16.20263 -35.78024 c 0,-8.35667 0.1261,-16.46191 0.2325,-24.60574 -0.439,1.63236 -0.9959,3.00979 -1.7575,3.47421 -1.6631,1.01408 -3.8162,0.29349 -4.579,-1.53221 -0.3698,-0.88518 -0.3652,-1.12379 0.053,-2.66857 0.4823,-1.78166 0.9137,-5.07924 0.664,-5.07824 z m 127.91785,28.0479 c -10.8015,0 -20.4779,2.25035 -29.0292,6.75101 -5.5602,3.0055 -10.3499,6.88419 -14.4048,11.59567 4.3999,-0.8442 8.5313,-2.12028 10.1399,-3.45198 5.6624,-4.68752 13.3187,-7.44648 20.6572,-7.44348 v 5.2e-4 c 2.0117,7.6e-4 3.879,0.216 5.7175,0.55294 2.2378,-0.37046 4.5386,-0.57878 6.9205,-0.57878 4.1371,0 7.9767,0.53577 11.5269,1.59215 0.4375,-0.78069 1.1327,-1.48202 2.2696,-1.85725 1.74732,-0.57665 4.00767,-2.15663 6.23895,-4.02507 -1.80397,-0.57345 -3.63787,-1.07143 -5.5206,-1.44798 -4.50065,-1.12516 -9.33915,-1.68775 -14.51485,-1.68775 z m 75.27349,1.35031 -38.93044,10.2774 c -2.70612,-2.21848 -5.69593,-4.08244 -9.00152,-5.55159 -0.20369,-0.10185 -0.41477,-0.18522 -0.6196,-0.28423 -2.54439,2.47164 -5.61862,4.72935 -8.32197,6.13813 0.86301,0.4876 1.70908,1.00505 2.52801,1.572 6.07589,3.82556 10.80193,9.22608 14.17743,16.20211 0.40526,0.78521 0.77981,1.59336 1.13946,2.41277 1.83808,-0.0515 3.06882,-0.18266 4.99143,-0.67954 1.6007,-0.41368 3.01376,-0.85059 3.13986,-0.97049 0.2868,-0.27258 -2.44457,-3.02117 -4.14807,-4.17442 -1.6896,-1.14391 -2.25354,-2.40007 -1.73684,-3.8685 0.4861,-1.38135 1.55055,-2.14095 3.00085,-2.14095 0.9328,0 1.48917,0.23701 3.02927,1.28933 1.30264,0.89005 2.41199,1.95312 3.42511,3.08508 -1.5175,-2.54148 -3.21912,-4.94118 -5.22758,-7.10499 h 23.29987 c -1.49329,-0.96111 -3.02829,-1.70107 -4.55011,-1.88051 -2.51899,-0.29702 -3.80429,-2.04051 -3.0856,-4.18476 0.50238,-1.49887 1.49018,-2.05721 3.57859,-2.02261 4.55955,0.0754 9.48499,3.37654 13.21315,8.08788 h 3.81217 v -13.50202 z m -102.20199,16.8894 c -5.2682,3.44527 -8.7281,8.54236 -9.769,14.99444 -0.012,0.073 0,0.18764 -0.01,0.26303 0.4128,-1.04538 0.7821,-2.12262 1.2635,-3.11764 2.2296,-4.75645 5.1065,-8.75789 8.5142,-12.13983 z m -13.8034,6.24045 c -0.034,-0.0339 -1.4286,0.1803 -3.0995,0.47646 -1.3562,0.24038 -3.1244,0.24614 -4.6618,0.32711 -0.1472,0.23956 -0.3072,0.46463 -0.4516,0.70745 -4.7257,8.10119 -7.0885,17.77758 -7.0885,29.02923 0,11.47669 2.3628,21.37843 7.0885,29.70465 3.9364,6.44141 8.9581,11.7254 15.0286,15.8905 0.1591,-0.10588 0.4939,-0.20387 0.6221,-0.31005 2.7725,-2.29511 6.0309,-4.11103 9.4878,-5.38366 -4.8395,-3.82084 -8.7591,-8.63859 -11.6365,-14.58515 -3.3755,-7.20106 -5.0633,-15.63986 -5.0633,-25.31629 0,-2.18244 0.1125,-4.28249 0.2926,-6.33294 -0.7709,-0.63691 -1.5891,-2.43448 -2.3508,-5.20744 -0.4616,-1.68033 -0.5604,-2.8068 -0.5736,-6.5288 -0.017,-4.85539 0.3875,-7.25919 1.8185,-10.80192 0.3571,-0.88409 0.6214,-1.63525 0.5875,-1.66915 z m 92.99077,9.52552 c 0.5795,4.39268 -0.15187,9.6828 -1.72547,11.55588 -1.01476,0.0404 -1.8538,0.1508 -2.92592,0.44493 -0.21217,0.0582 -0.42312,0.14076 -0.63562,0.20568 -0.6627,-0.33167 -1.22586,-0.88569 -1.54306,-1.64486 -0.3698,-0.88518 -0.36527,-1.1238 0.0532,-2.66858 0.48229,-1.78165 0.9127,-5.07924 0.663,-5.07824 -0.08,3.9e-4 -1.57453,0.37965 -3.32072,0.84284 -1.83226,0.48598 -2.98036,0.66189 -4.44831,0.75035 1.3639,4.93264 2.1301,10.31372 2.1301,16.26929 0,9.67642 -1.80017,18.11522 -5.4007,25.31628 -3.3755,7.20106 -8.10154,12.82693 -14.17743,16.87752 -3.48914,2.19687 -7.35184,3.68768 -11.50884,4.62298 0.023,0.006 0.045,0.0199 0.068,0.0258 1.8683,1.6273 3.6411,3.4528 5.33298,5.58415 0.46555,0.58647 0.73418,0.85727 1.12448,1.33015 4.37851,-1.12024 8.52224,-2.71056 12.4101,-4.81211 8.55126,-4.50066 15.18988,-10.91394 19.91558,-19.24017 4.95073,-8.32622 7.4259,-18.11554 7.4259,-29.3672 0,-7.88618 -1.19151,-14.85585 -3.437,-21.01473 z m -183.35582,9.01288 c 1.4407,0.58104 2.9162,1.02656 4.3553,1.25677 h 5e-4 c 0.4785,0.0765 1.1829,0.0997 1.973,0.092 -0.013,0.37909 -0.027,0.76708 -0.078,0.95291 -0.4948,1.79202 -2.5747,2.68572 -4.3217,1.85674 -1.2418,-0.58925 -1.62,-1.41476 -1.9291,-4.15841 z m -7.9732,25.14007 v 1.09037 l 0.4858,-0.58807 z m 5.7873,4.12378 c -0.073,-0.0376 -0.6681,0.6529 -1.3229,1.53427 -1.1265,1.51618 -2.7389,3.11065 -4.4644,4.63124 v 12.01529 c 0,3.79664 -0.083,7.50991 -0.1054,11.28458 0.8062,0.36286 1.5962,0.75121 2.4531,1.03198 2.0696,0.6781 2.5867,0.73816 6.4823,0.75086 3.8191,0.0125 4.5181,-0.0599 7.1437,-0.73845 0.3462,-0.0895 0.3616,-0.12165 0.6791,-0.20981 -0.01,-1.17578 -0.027,-2.33867 -0.033,-3.51658 -0.5744,-0.51003 -1.155,-1.07974 -1.6547,-1.418 -1.6896,-1.14391 -2.2535,-2.40059 -1.7368,-3.86902 0.4861,-1.38136 1.5505,-2.14044 3.0008,-2.14044 0.1166,0 0.214,0.054 0.3215,0.0625 -3e-4,-0.41613 -0.011,-0.82125 -0.011,-1.23765 v -14.2291 c -3.4582,-0.74502 -6.9629,-1.99426 -10.7523,-3.9517 z m 93.63935,2.82825 c -0.8887,1.24812 -0.6148,1.67168 0.6599,4.17442 0.443,0.86982 0.9074,1.58412 1.4939,2.32441 -0.8262,0.77154 -1.7257,1.53779 -2.0205,1.69085 -0.799,0.41479 -1.3853,0.37604 -2.465,-0.1633 -1.2757,-0.6373 -1.9895,-2.02739 -1.7358,-3.37963 0.1532,-0.81659 0.6014,-1.4392 2.0898,-2.90164 0.6207,-0.60985 1.2828,-1.19081 1.9777,-1.74511 z m 74.98764,6.21771 c 1.8049,0.93244 3.72729,1.69245 5.74849,2.26859 -0.025,1.95665 -0.44842,4.11874 -1.17512,6.29781 -1.9485,-0.53448 -3.95252,-1.32191 -5.99912,-2.23397 0.362,-1.20821 0.66075,-2.45518 0.80925,-3.78272 0.1305,-1.16563 0.3147,-1.96303 0.6165,-2.54971 z m -51.29554,18.26762 c -2.9217,0.36988 -5.7255,1.07058 -8.6936,2.56367 -5.3021,2.66733 -8.9655,6.90865 -10.8727,12.23542 2.1207,-3.03377 4.9414,-6.30087 8.4718,-9.80456 8.059,3.84202 17.066,5.78827 27.0459,5.78827 2.9658,0 5.8335,-0.19596 8.6223,-0.54983 -2.6881,-3.05808 -5.511,-5.53013 -8.5329,-7.23987 -0.1462,0.001 -0.2799,0.0258 -0.4268,0.0258 -5.6782,0 -10.8715,-1.03063 -15.614,-3.01894 z m -123.28765,8.94932 c -0.056,6.0119 -0.057,12.08033 -0.169,18.03611 0,2.01697 -0.044,3.9443 -0.058,5.93452 1.164,0.12949 2.3313,0.26117 3.4845,0.26304 1.687,0.003 2.8138,0.53346 3.3554,1.58078 1.2416,2.40096 -0.4961,4.77128 -3.498,4.77128 -0.4887,0 -2.1117,-0.2517 -3.4029,-0.38912 -0.055,3.92007 -0.1415,7.77614 -0.2496,11.58947 l -7.6295,0.60772 c -0.7377,1.61745 -1.573,3.20486 -2.3027,4.177 -0.2847,-0.29749 -0.5568,-0.5841 -0.9343,-0.95756 -1.338,-1.32402 -2.321,-2.02518 -3.39,-2.69183 l -18.1172,1.44333 v 7.42642 h 41.2657 c 0.6001,-1.59567 1.0746,-3.27642 1.279,-5.10357 0.2689,-2.40326 0.7466,-3.28768 2.0748,-3.84266 0.333,-0.13914 0.6556,-0.22556 0.9679,-0.25941 0.9369,-0.10155 1.7794,0.27042 2.5202,1.11414 0.7156,0.81512 0.8139,1.1191 0.8139,2.51664 0,1.72996 -0.401,3.64147 -0.9679,5.57486 h 30.19985 c 0.01,-1.89169 -0.1358,-3.79332 -0.4874,-5.06584 -0.2678,-0.9694 -0.6636,-1.7303 -1.0195,-2.55437 l -26.21245,-2.29908 c -0.1589,-7.81421 -0.3175,-15.57272 -0.4764,-23.83576 -0.1084,-5.74094 -0.1066,-11.59242 -0.1628,-17.3855 -2.1867,0.55222 -3.1477,0.66549 -7.4885,0.67076 -4.7783,0.006 -5.3448,-0.0456 -7.6755,-0.6935 -0.6097,-0.1695 -1.1382,-0.43005 -1.7197,-0.62787 z m 98.50665,1.34514 c 0,-0.002 -0.1763,0.0292 -0.1881,0.0289 -2.732,2.92765 -5.0898,5.785 -7.0115,8.56072 -4.0506,5.62582 -6.0761,11.58893 -6.0761,17.88986 0,7.20106 2.0255,13.05227 6.0761,17.55293 0.9221,0.97055 1.9445,1.8528 3.034,2.67684 1.376,-1.39298 2.6497,-2.93032 3.6835,-4.76611 1.0669,-1.89471 1.5999,-2.36409 2.8799,-2.53577 1.9209,-0.25764 3.5032,1.14625 3.5032,3.10834 0,1.18694 -1.5869,4.04906 -3.7166,6.70915 -0.4142,0.13288 -0.7925,0.38201 -1.1999,0.54054 2.2542,1.0469 4.8074,1.83208 7.5447,2.45618 -5.0144,2.47259 -9.609,5.13155 -13.7036,8.01295 -0.1968,0.15138 -0.3651,0.3132 -0.5591,0.4656 1.5284,3.16135 2.4109,6.53795 2.5301,9.82266 1.8156,-2.90524 4.058,-5.66839 6.8053,-8.26306 3.1142,-2.76816 6.8409,-5.53625 10.8861,-8.30441 1.3221,0.12839 2.6441,0.20361 3.9662,0.20361 2.4754,0.22503 4.8381,0.33745 7.0885,0.33745 h 3.3383 c 0.019,-0.1816 0,-0.48072 0.026,-0.63924 0.6493,-4.44029 2.3377,-8.65822 3.761,-9.39426 0.3076,-0.15904 0.6372,-0.26096 0.9725,-0.30799 1.0058,-0.14107 2.065,0.20946 2.7482,0.9741 1.1303,1.26491 1.1676,1.91192 0.247,4.26382 -0.6552,1.67379 -1.0863,3.39157 -1.3333,5.10357 h 15.6725 c 2.2036,-3.95957 2.8691,-8.06037 2.1177,-13.51029 -0.067,-0.4861 -0.1598,-0.7408 -0.385,-1.00459 h -28.853 c -8.3263,0 -14.4023,-1.80018 -18.2279,-5.4007 -3.2021,-3.01375 -4.9827,-6.69639 -5.5045,-10.97143 -0.6523,-0.85522 -1.3211,-2.30223 -1.9549,-4.60954 -0.4616,-1.68033 -0.5605,-2.80679 -0.5737,-6.5288 -0.017,-4.85538 0.3881,-7.25919 1.8191,-10.80192 0.3571,-0.88409 0.6209,-1.63525 0.587,-1.66915 z m 72.78682,40.05389 c 0.021,1.78173 -1.49662,3.24114 -3.84576,3.24114 -1.1973,0 -6.10846,-0.56126 -8.33696,-0.95291 l -0.99167,-0.17415 0.16123,1.55546 c 0.1855,1.79313 -0.24877,5.80285 -0.89917,8.30285 -0.1816,0.698 -0.71401,1.61198 -1.08314,2.47014 h 9.94513 c 13.95206,0 23.62844,2.70052 29.02924,8.10131 5.40079,5.40079 8.10131,12.15184 8.10131,20.25303 0,1.78786 -0.14128,3.53039 -0.3824,5.24154 0.24165,-0.53447 0.60796,-1.00341 1.09244,-1.32085 0.92011,-0.60287 2.70718,-0.52846 3.54707,0.14728 2.81154,2.26204 5.50101,3.89287 8.4031,5.05757 1.18711,-3.97871 1.85415,-8.02661 1.85415,-12.1636 0,-3.07858 -0.24084,-5.95866 -0.68833,-8.66872 -0.65018,-0.15984 -1.34627,-0.55329 -3.12177,-1.96422 -1.34997,-1.07277 -2.94502,-2.00411 -4.58215,-2.74712 0.17525,-2.46827 0.0701,-5.23115 -0.39894,-6.95823 0.21262,0.0631 0.52708,0.11429 0.709,0.17725 1.57141,0.54387 3.16011,1.33509 4.67362,2.19159 -0.67877,-1.51682 -1.44736,-2.9595 -2.32958,-4.30878 -1.66447,-2.70477 -3.73157,-5.08277 -6.16551,-7.16235 -0.41569,0.50907 -0.85215,1.00344 -1.22008,1.54254 -1.66693,-1.58241 -3.50586,-3.65604 -5.18987,-5.77691 -1.17415,-0.61774 -2.33754,-1.24394 -3.62717,-1.76785 -6.7254,-2.73219 -14.98409,-4.13554 -24.65379,-4.31601 z m -83.56912,25.06772 c -3.2511,3.13737 -6.0317,6.44561 -8.2315,9.96528 -0.6153,1.05468 -1.1198,2.15668 -1.6149,3.26285 2.5447,0.17771 5.0113,0.57088 7.4884,1.38803 2.716,0.89599 3.7273,1.70808 3.9672,3.18637 0.2878,1.77374 -1.2067,3.64784 -2.9089,3.64784 -0.3695,0 -1.7337,-0.35576 -3.0318,-0.79065 -2.4045,-0.80558 -5.0032,-1.08417 -7.63,-1.10536 -0.6313,2.75133 -0.9958,5.61689 -0.9958,8.63875 0,3.58026 0.4182,6.95105 1.2071,10.13685 1.7374,-0.29617 3.4869,-0.4751 5.2193,-0.47439 4.1441,0.002 7.7444,0.70259 11.5477,2.22828 -1.8414,-4.27285 -2.7844,-9.12703 -2.7844,-14.59135 0,-5.82212 0.9562,-10.90035 2.8159,-15.27607 -0.5992,0.0944 -1.2237,0.0237 -1.8356,-0.26665 -1.2183,-0.57813 -1.6689,-1.59981 -1.8763,-4.25297 -0.1571,-2.00934 -0.655,-3.90091 -1.3364,-5.69681 z m 115.0566,24.28947 c -0.99304,5.53546 -3.25781,10.66681 -6.83369,15.38046 -0.13648,0.19498 -0.29468,0.37641 -0.43511,0.56895 0.2636,0.42429 0.49557,0.84534 0.49557,1.40354 0,1.94642 -1.58418,3.36418 -3.47627,3.1104 -0.172,-0.0231 -0.44813,-0.13596 -0.66973,-0.20102 -4.41766,4.47121 -10.14145,8.13393 -17.17983,10.98279 -0.38202,0.15463 -0.79209,0.28674 -1.18184,0.43512 0.98125,2.85638 1.41378,5.16697 1.41749,8.21087 2.4e-4,0.10295 -0.0303,0.18521 -0.031,0.28732 8.96208,-2.8665 16.59283,-6.70939 22.74849,-11.63392 6.75099,-5.17576 11.81427,-11.13887 15.18977,-17.88986 0.38321,-0.74088 0.66643,-1.49505 1.00614,-2.24173 -3.7839,-1.45646 -7.32305,-3.45993 -9.71414,-5.63583 -1.0161,-0.92465 -1.297,-1.36998 -1.41077,-2.23604 -0.0247,-0.18819 0.069,-0.35508 0.0749,-0.54105 z m -121.5627,19.91506 c -1.0883,0 -2.0627,0.23733 -3.0845,0.35605 0.9385,2.06499 2.0505,4.04341 3.3843,5.91075 4.7257,6.30093 11.7015,11.13938 20.9279,14.51488 9.2264,3.3755 20.8159,5.06274 34.7679,5.06274 0.8255,0 1.5897,-0.0612 2.403,-0.0734 0.1642,-1.17025 0.4949,-2.75179 0.3597,-2.75125 -0.08,3.9e-4 -1.575,0.37965 -3.3213,0.84284 -3.0442,0.80746 -3.3879,0.84253 -8.3349,0.84853 -4.7783,0.006 -5.3448,-0.0456 -7.6755,-0.6935 -6.6284,-1.84274 -11.4935,-5.28966 -16.7214,-11.84682 -6.5225,-8.18073 -13.9665,-12.17084 -22.7052,-12.17084 z m 32.5211,13.3718 c 0.1954,0.16152 0.3695,0.36165 0.5772,0.52296 2.0463,1.58931 4.4788,2.86239 7.1252,3.72949 2.0695,0.6781 2.5866,0.73816 6.4823,0.75086 3.819,0.0125 4.5181,-0.0599 7.1437,-0.73846 1.0549,-0.27262 1.4919,-0.44434 2.0691,-0.63975 -8.9277,-0.16674 -16.7347,-1.36761 -23.3975,-3.6251 z m 53.65255,0.39584 c -6.44744,1.76399 -13.86974,2.73854 -22.06685,3.08612 0.1542,0.44348 0.3594,0.86674 0.4775,1.32343 0.5715,2.2106 0.6198,4.91059 0.3824,7.39335 8.05716,-0.46964 15.41037,-1.64314 22.16813,-3.4122 0.28407,-2.78689 -0.0369,-5.65435 -0.96118,-8.3907 z" /></g></svg>
